# xmcd
#
# Track frame offsets: 
#        150
#        13469
#        24901
#        43134
#        54959
#        68016
#        79159
#        89741
#        105969
#        118731
#        139840
#        153146
#        165230
#        182700
#        195827
#
# Disc length: 2921 seconds
#
# Revision: 0
# Processed by: cddbd v1.5.2PL0 Copyright (c) Steve Scherf et al.
# Submitted via: ExactAudioCopy v0.99pb5
#
DISCID=b60b670f
DTITLE=The Temptations - Motown 50 Essentials [CD 7)
DYEAR=2009
DGENRE=Soul
TTITLE0=My Girl
TTITLE1=Ain´t Too Proud To Beg
TTITLE2=Ball Of Confusion (That´s What The World Is Today)
TTITLE3=Get Ready
TTITLE4=I Can´t Get Next To You
TTITLE5=(I Know) I´m Losing To You
TTITLE6=Beauty Is Only Skin Deep
TTITLE7=Cloud Nine
TTITLE8=Since I Lost My Baby
TTITLE9=Treat Her Like A Lady
TTITLE10=You´re My Everything
TTITLE11=The Way You Do The Things You Do
TTITLE12=Just My Imagination (Running Away With Me)
TTITLE13=Don´t Look Back
TTITLE14=Papa was a Rollin´Stone
EXTD=
EXTT0=
EXTT1=
EXTT2=
EXTT3=
EXTT4=
EXTT5=
EXTT6=
EXTT7=
EXTT8=
EXTT9=
EXTT10=
EXTT11=
EXTT12=
EXTT13=
EXTT14=
PLAYORDER=
